# This file uses centimeters as units for non-parametric coordinates.

mtllib Wall_02_ID.mtl
g default
v -43.938232 0.000000 -8.941895
v -42.094971 0.000000 -7.439453
v -406.061523 0.000000 -8.941895
v -407.904785 0.000000 -7.439453
v -42.094971 415.117733 -7.439453
v -407.904785 415.117733 -7.439453
v -43.938232 413.107662 -8.941895
v -406.061768 413.107662 -8.941895
v 0.000000 0.000000 0.000000
v 0.000000 450.537167 0.000000
v -40.251709 417.132137 0.000000
v -40.251709 0.000000 0.000000
v -42.094971 415.117733 -1.501953
v -42.094971 0.000000 -1.501953
v -449.999756 0.000000 0.000000
v -409.748047 0.000000 0.000000
v -409.748047 417.132137 0.000000
v -449.999756 450.537167 0.000000
v -407.904785 0.000000 -1.501953
v -407.904785 415.117733 -1.501953
vt 1.000000 0.000000
vt 1.000000 1.000000
vt 0.910092 0.924970
vt 0.913286 0.000000
vt 0.898329 0.913720
vt 0.893666 0.908805
vt 0.890306 0.000000
vt 0.895417 0.000000
vt 0.905326 0.919939
vt 0.908175 0.000000
vt 0.109646 0.000000
vt 0.106327 0.908801
vt 0.000000 0.000000
vt 0.086681 0.000000
vt 0.089902 0.924965
vt 0.000000 1.000000
vt 0.101664 0.913716
vt 0.104538 0.000000
vt 0.091788 0.000000
vt 0.094668 0.919935
vn 0.000000 0.000000 1.000000
vn 0.000000 0.000000 1.000000
vn 0.000000 0.000000 1.000000
vn 0.000000 0.000000 1.000000
vn -0.631810 0.000000 0.775123
vn -0.631810 0.000000 0.775123
vn -0.631810 0.000000 0.775123
vn -0.631810 0.000000 0.775123
vn -0.631701 0.000000 0.775212
vn -0.631701 0.000000 0.775212
vn -0.631701 0.000000 0.775212
vn -0.631701 0.000000 0.775212
vn 0.000000 0.000000 1.000000
vn 0.000000 0.000000 1.000000
vn 0.000000 0.000000 1.000000
vn 0.000000 0.000000 1.000000
vn 0.000000 0.000000 1.000000
vn 0.000000 0.000000 1.000000
vn 0.000000 0.000000 1.000000
vn 0.000000 0.000000 1.000000
vn 0.631835 0.000000 0.775103
vn 0.631835 0.000000 0.775103
vn 0.631835 0.000000 0.775103
vn 0.631835 0.000000 0.775103
vn 0.631701 0.000000 0.775212
vn 0.631701 0.000000 0.775212
vn 0.631701 0.000000 0.775212
vn 0.631701 0.000000 0.775212
vn 0.000000 -0.597746 0.801686
vn 0.000000 -0.597746 0.801686
vn 0.000000 -0.597746 0.801686
vn 0.000000 -0.597746 0.801686
vn 0.000000 0.000000 1.000000
vn 0.000000 0.000000 1.000000
vn 0.000000 0.000000 1.000000
vn 0.000000 0.000000 1.000000
vn 0.000000 -0.598697 0.800975
vn 0.000000 -0.598697 0.800975
vn 0.000000 -0.598697 0.800975
vn 0.000000 -0.598697 0.800975
vn -1.000000 0.000000 0.000000
vn -1.000000 0.000000 0.000000
vn -1.000000 0.000000 0.000000
vn -1.000000 0.000000 0.000000
vn 1.000000 0.000000 0.000000
vn 1.000000 0.000000 0.000000
vn 1.000000 0.000000 0.000000
vn 1.000000 0.000000 0.000000
vn 0.000000 -1.000000 0.000000
vn 0.000000 -1.000000 0.000000
vn 0.000000 -1.000000 0.000000
vn 0.000000 -1.000000 0.000000
s off
g polySurface114 group2
usemtl initialShadingGroup
f 9/1/1 10/2/2 11/3/3 12/4/4
f 5/5/5 7/6/6 1/7/7 2/8/8
f 12/4/9 11/3/10 13/9/11 14/10/12
usemtl lambert2SG
f 3/11/13 1/7/14 7/6/15 8/12/16
usemtl initialShadingGroup
f 15/13/17 16/14/18 17/15/19 18/16/20
f 8/12/21 6/17/22 4/18/23 3/11/24
f 16/14/25 19/19/26 20/20/27 17/15/28
f 20/20/29 13/9/30 11/3/31 17/15/32
f 17/15/33 11/3/34 10/2/35 18/16/36
f 8/12/37 7/6/38 5/5/39 6/17/40
f 5/5/41 2/8/42 14/10/43 13/9/44
f 4/18/45 6/17/46 20/20/47 19/19/48
f 6/17/49 5/5/50 13/9/51 20/20/52
