# This file uses centimeters as units for non-parametric coordinates.

mtllib Wall_01_OBJ.mtl
g default
v 0.000122 -0.000002 0.000122
v 0.000122 450.188202 0.000122
v -42.095093 450.188202 -9.757690
v -43.938354 450.188202 -10.841675
v -43.938354 -0.000002 -10.841675
v -42.095093 -0.000002 -9.757690
v -42.095093 -0.000002 -1.083862
v -40.251831 -0.000002 0.000122
v -40.251831 450.188202 0.000122
v -42.095093 450.188202 -1.083862
v -449.999756 -0.000002 0.000122
v -449.999756 450.188202 0.000122
v -407.904541 450.188202 -9.757690
v -406.061279 450.188202 -10.841675
v -406.061279 -0.000002 -10.841675
v -407.904541 -0.000002 -9.757690
v -407.904541 -0.000002 -1.083862
v -409.747803 -0.000002 0.000122
v -409.747803 450.188202 0.000122
v -407.904541 450.188202 -1.083862
vt 1.000000 0.000000
vt 1.000000 1.000000
vt 0.910917 1.000000
vt 0.910917 0.000000
vt 0.888017 0.000000
vt 0.906388 0.000000
vt 0.906388 1.000000
vt 0.888017 1.000000
vt 0.883488 1.000000
vt 0.883488 0.000000
vt 0.116512 0.000000
vt 0.116512 1.000000
vt -0.000000 0.000000
vt 0.089083 0.000000
vt 0.089083 1.000000
vt 0.000000 1.000000
vt 0.111983 0.000000
vt 0.111983 1.000000
vt 0.093612 1.000000
vt 0.093612 0.000000
vn 0.000000 0.000000 1.000000
vn 0.000000 0.000000 1.000000
vn 0.000000 0.000000 1.000000
vn 0.000000 0.000000 1.000000
vn -1.000000 0.000000 0.000000
vn -1.000000 0.000000 0.000000
vn -1.000000 0.000000 0.000000
vn -1.000000 0.000000 0.000000
vn -0.506920 0.000000 0.861993
vn -0.506920 0.000000 0.861993
vn -0.506920 0.000000 0.861993
vn -0.506920 0.000000 0.861993
vn -0.506920 0.000000 0.861993
vn -0.506920 0.000000 0.861993
vn -0.506920 0.000000 0.861993
vn -0.506920 0.000000 0.861993
vn 0.000000 0.000000 1.000000
vn 0.000000 0.000000 1.000000
vn 0.000000 0.000000 1.000000
vn 0.000000 0.000000 1.000000
vn 0.000000 0.000000 1.000000
vn 0.000000 0.000000 1.000000
vn 0.000000 0.000000 1.000000
vn 0.000000 0.000000 1.000000
vn 1.000000 0.000000 0.000000
vn 1.000000 0.000000 0.000000
vn 1.000000 0.000000 0.000000
vn 1.000000 0.000000 0.000000
vn 0.506920 0.000000 0.861993
vn 0.506920 0.000000 0.861993
vn 0.506920 0.000000 0.861993
vn 0.506920 0.000000 0.861993
vn 0.506920 0.000000 0.861993
vn 0.506920 0.000000 0.861993
vn 0.506920 0.000000 0.861993
vn 0.506920 0.000000 0.861993
s off
g pasted__polySurface88
usemtl initialShadingGroup
f 1/1/1 2/2/2 9/3/3 8/4/4
f 6/5/5 7/6/6 10/7/7 3/8/8
f 4/9/9 5/10/10 6/5/11 3/8/12
f 8/4/13 9/3/14 10/7/15 7/6/16
f 15/11/17 5/10/18 4/9/19 14/12/20
f 11/13/21 18/14/22 19/15/23 12/16/24
f 16/17/25 13/18/26 20/19/27 17/20/28
f 14/12/29 13/18/30 16/17/31 15/11/32
f 18/14/33 17/20/34 20/19/35 19/15/36
